<?xml version="1.0" encoding="UTF-8" standalone="no"?>
<!DOCTYPE svg PUBLIC "-//W3C//DTD SVG 1.1//EN" "http://www.w3.org/Graphics/SVG/1.1/DTD/svg11.dtd">
<svg width="100%" height="100%" viewBox="0 0 234 126" version="1.1" xmlns="http://www.w3.org/2000/svg" xmlns:xlink="http://www.w3.org/1999/xlink" xml:space="preserve" xmlns:serif="http://www.serif.com/" style="fill-rule:evenodd;clip-rule:evenodd;stroke-linejoin:round;stroke-miterlimit:2;">
    <g id="Artboard1" transform="matrix(0.974941,0,0,0.768813,5.84965,59.1986)">
        <rect x="-6" y="-77" width="239.434" height="163" style="fill:none;"/>
        <g transform="matrix(4.27377,0,0,5.41961,77.3513,1.05931)">
            <path d="M0,-0.367C1.296,3.144 4.544,5.629 7.75,6.24C10.302,6.728 12.948,6.413 15.506,6.108C17.105,5.918 18.755,5.722 20.391,5.716C21.236,1.544 17.475,-1.931 14.475,-2.763C9.635,-4.104 4.775,-2.573 0,-0.367M-19.332,7.98L-19.503,7.375C-15.856,6.344 -12.234,4.968 -8.737,3.285C-7.519,2.698 -6.268,2.057 -5.058,1.437C-3.64,0.711 -2.212,-0.021 -0.774,-0.7C-1.08,-1.697 -1.239,-2.765 -1.213,-3.888L-1.208,-4.106L-1.003,-4.178C5.472,-6.45 12.261,-8.347 17.853,-4.524C19.119,-3.658 20.262,-2.525 21.367,-1.429C22.007,-0.794 22.669,-0.138 23.343,0.454C27.174,3.819 31.838,5.483 36.475,5.147L36.521,5.774C31.719,6.127 26.887,4.404 22.928,0.926C22.24,0.322 21.571,-0.341 20.925,-0.982C19.839,-2.058 18.716,-3.172 17.499,-4.005C12.207,-7.622 5.674,-5.843 -0.587,-3.658C-0.587,-2.715 -0.45,-1.815 -0.2,-0.968C4.662,-3.21 9.627,-4.761 14.642,-3.369C18.459,-2.311 21.988,1.84 20.949,6.106L20.889,6.348L20.64,6.345C18.962,6.325 17.242,6.535 15.581,6.733C12.975,7.043 10.279,7.363 7.632,6.858C4.249,6.213 0.821,3.598 -0.57,-0.1C-1.979,0.566 -3.38,1.284 -4.771,1.997C-5.984,2.619 -7.239,3.262 -8.464,3.852C-11.994,5.55 -15.65,6.94 -19.332,7.98" style="fill:white;fill-rule:nonzero;"/>
        </g>
    </g>
</svg>
