<?xml version="1.0" encoding="UTF-8" standalone="no"?>
<!DOCTYPE svg PUBLIC "-//W3C//DTD SVG 1.1//EN" "http://www.w3.org/Graphics/SVG/1.1/DTD/svg11.dtd">
<svg width="100%" height="100%" viewBox="0 0 404 127" version="1.1" xmlns="http://www.w3.org/2000/svg" xmlns:xlink="http://www.w3.org/1999/xlink" xml:space="preserve" xmlns:serif="http://www.serif.com/" style="fill-rule:evenodd;clip-rule:evenodd;stroke-linejoin:round;stroke-miterlimit:2;">
    <g transform="matrix(4.16667,0,0,4.16667,-329.895,-198.553)">
        <g transform="matrix(1,0,0,1,80.5098,73.6456)">
            <path d="M0,-0.613C0.576,-0.613 1.152,-0.637 1.617,-1.042C2.058,-1.397 2.267,-1.948 2.267,-2.5C2.267,-3.186 1.948,-3.872 1.286,-4.166C0.796,-4.399 0.171,-4.374 -0.368,-4.374L-0.748,-4.374L-0.748,-0.613L0,-0.613ZM3.234,4.312L2.561,4.312L-0.454,-0.062L-0.748,-0.062L-0.748,4.312L-1.335,4.312L-1.335,-4.925L-0.184,-4.925C0.563,-4.925 1.298,-4.913 1.923,-4.46C2.585,-3.994 2.854,-3.259 2.854,-2.476C2.854,-0.87 1.74,-0.037 0.208,-0.062L3.234,4.312Z" style="fill:white;fill-rule:nonzero;"/>
        </g>
        <g transform="matrix(1,0,0,1,90.0865,76.4621)">
            <path d="M0,-6.554L-1.813,-2.094L1.801,-2.094L0,-6.554ZM-2.034,-1.543L-3.271,1.495L-3.872,1.495L0,-8.049L3.86,1.495L3.259,1.495L2.022,-1.543L-2.034,-1.543Z" style="fill:white;fill-rule:nonzero;"/>
        </g>
        <g transform="matrix(1,0,0,1,103.643,76.0713)">
            <path d="M0,-5.465C-0.711,-6.335 -1.96,-6.923 -3.1,-6.923C-5.403,-6.923 -7.302,-4.938 -7.302,-2.672C-7.302,-1.593 -6.836,-0.576 -6.064,0.183C-5.293,0.918 -4.19,1.457 -3.1,1.457C-2.034,1.457 -0.686,0.882 0,0.049L0,0.857C-0.87,1.58 -1.936,2.009 -3.075,2.009C-5.648,2.009 -7.89,-0.135 -7.89,-2.72C-7.89,-5.342 -5.685,-7.474 -3.063,-7.474C-1.948,-7.474 -0.821,-7.033 0,-6.274L0,-5.465Z" style="fill:white;fill-rule:nonzero;"/>
        </g>
        <g transform="matrix(1,0,0,1,113.093,74.0375)">
            <path d="M0,-1.397L0,-5.317L0.587,-5.317L0.587,3.92L0,3.92L0,-0.846L-5.612,-0.846L-5.612,3.92L-6.2,3.92L-6.2,-5.317L-5.612,-5.317L-5.612,-1.397L0,-1.397Z" style="fill:white;fill-rule:nonzero;"/>
        </g>
        <g transform="matrix(1,0,0,1,118.011,77.4064)">
            <path d="M0,-8.135L0,-4.778L3.724,-4.778L3.724,-4.227L0,-4.227L0,0L3.822,0L3.822,0.551L-0.588,0.551L-0.588,-8.686L3.822,-8.686L3.822,-8.135L0,-8.135Z" style="fill:white;fill-rule:nonzero;"/>
        </g>
        <g transform="matrix(1,0,0,1,125.543,69.2711)">
            <path d="M0,8.135L2.353,8.135L2.353,8.686L-0.588,8.686L-0.588,-0.551L0,-0.551L0,8.135Z" style="fill:white;fill-rule:nonzero;"/>
        </g>
        <g transform="matrix(1,0,0,1,139.374,76.4621)">
            <path d="M0,-6.554L-1.813,-2.094L1.801,-2.094L0,-6.554ZM-2.034,-1.543L-3.271,1.495L-3.872,1.495L0,-8.049L3.859,1.495L3.259,1.495L2.021,-1.543L-2.034,-1.543Z" style="fill:white;fill-rule:nonzero;"/>
        </g>
        <g transform="matrix(1,0,0,1,146.581,69.2711)">
            <path d="M0,8.135L1.409,8.135C2.058,8.135 2.732,8.159 3.295,7.78C3.859,7.4 4.202,6.824 4.202,6.138C4.202,5.465 3.871,4.79 3.246,4.484C2.683,4.202 1.911,4.19 1.299,4.19L0,4.19L0,8.135ZM0,3.639L1.017,3.639C1.642,3.639 2.144,3.676 2.67,3.296C3.197,2.916 3.357,2.45 3.357,1.813C3.357,1.213 3.124,0.625 2.597,0.294C2.132,0 1.556,0 1.017,0L0,0L0,3.639ZM-0.588,8.686L-0.588,-0.551L1.262,-0.551C1.96,-0.551 2.622,-0.502 3.173,-0.012C3.737,0.478 3.945,1.164 3.945,1.899C3.945,2.744 3.614,3.369 2.879,3.786C4.019,4.018 4.79,4.937 4.79,6.114C4.79,6.861 4.508,7.535 3.933,8.025C3.283,8.576 2.597,8.686 1.776,8.686L-0.588,8.686Z" style="fill:white;fill-rule:nonzero;"/>
        </g>
        <g transform="matrix(1,0,0,1,155.95,73.6456)">
            <path d="M0,-0.613C0.576,-0.613 1.151,-0.637 1.617,-1.042C2.058,-1.397 2.266,-1.948 2.266,-2.5C2.266,-3.186 1.948,-3.872 1.287,-4.166C0.796,-4.399 0.171,-4.374 -0.368,-4.374L-0.747,-4.374L-0.747,-0.613L0,-0.613ZM3.234,4.312L2.561,4.312L-0.454,-0.062L-0.747,-0.062L-0.747,4.312L-1.335,4.312L-1.335,-4.925L-0.184,-4.925C0.563,-4.925 1.298,-4.913 1.923,-4.46C2.585,-3.994 2.854,-3.259 2.854,-2.476C2.854,-0.87 1.739,-0.037 0.208,-0.062L3.234,4.312Z" style="fill:white;fill-rule:nonzero;"/>
        </g>
        <g transform="matrix(1,0,0,1,162.77,77.4064)">
            <path d="M0,-8.135L0,-4.778L3.724,-4.778L3.724,-4.227L0,-4.227L0,0L3.822,0L3.822,0.551L-0.588,0.551L-0.588,-8.686L3.822,-8.686L3.822,-8.135L0,-8.135Z" style="fill:white;fill-rule:nonzero;"/>
        </g>
        <g transform="matrix(1,0,0,1,175.356,78.0801)">
            <path d="M0,-9.36L0.588,-9.36L0.588,-3.602C0.588,-2.659 0.588,-1.85 -0.037,-1.078C-0.662,-0.367 -1.617,0 -2.549,0C-3.479,0 -4.435,-0.367 -5.061,-1.078C-5.685,-1.85 -5.685,-2.659 -5.685,-3.602L-5.685,-9.36L-5.097,-9.36L-5.097,-3.774C-5.097,-2.941 -5.097,-2.058 -4.619,-1.446C-4.166,-0.858 -3.259,-0.551 -2.549,-0.551C-1.838,-0.551 -0.932,-0.858 -0.478,-1.446C0,-2.058 0,-2.941 0,-3.774L0,-9.36Z" style="fill:white;fill-rule:nonzero;"/>
        </g>
        <g transform="matrix(1,0,0,1,119.05,54.363)">
            <path d="M0,-0.367C1.296,3.144 4.544,5.629 7.75,6.24C10.302,6.728 12.948,6.413 15.506,6.108C17.105,5.918 18.755,5.722 20.391,5.716C21.236,1.544 17.475,-1.931 14.475,-2.763C9.635,-4.104 4.775,-2.573 0,-0.367M-19.332,7.98L-19.503,7.375C-15.856,6.344 -12.234,4.968 -8.737,3.285C-7.519,2.698 -6.268,2.057 -5.058,1.437C-3.64,0.711 -2.212,-0.021 -0.774,-0.7C-1.08,-1.697 -1.239,-2.765 -1.213,-3.888L-1.208,-4.106L-1.003,-4.178C5.472,-6.45 12.261,-8.347 17.853,-4.524C19.119,-3.658 20.262,-2.525 21.367,-1.429C22.007,-0.794 22.669,-0.138 23.343,0.454C27.174,3.819 31.838,5.483 36.475,5.147L36.521,5.774C31.719,6.127 26.887,4.404 22.928,0.926C22.24,0.322 21.571,-0.341 20.925,-0.982C19.839,-2.058 18.716,-3.172 17.499,-4.005C12.207,-7.622 5.674,-5.843 -0.587,-3.658C-0.587,-2.715 -0.45,-1.815 -0.2,-0.968C4.662,-3.21 9.627,-4.761 14.642,-3.369C18.459,-2.311 21.988,1.84 20.949,6.106L20.889,6.348L20.64,6.345C18.962,6.325 17.242,6.535 15.581,6.733C12.975,7.043 10.279,7.363 7.632,6.858C4.249,6.213 0.821,3.598 -0.57,-0.1C-1.979,0.566 -3.38,1.284 -4.771,1.997C-5.984,2.619 -7.239,3.262 -8.464,3.852C-11.994,5.55 -15.65,6.94 -19.332,7.98" style="fill:white;fill-rule:nonzero;"/>
        </g>
    </g>
</svg>
